<svg xmlns="http://www.w3.org/2000/svg" viewBox="0 0 64 64"><g id="Layer_65" data-name="Layer 65"><path d="M53.94,26.57H50.72a18.83,18.83,0,0,0-1.65-4l2.28-2.28a1.49,1.49,0,0,0,0-2.12l-5.56-5.56a1.49,1.49,0,0,0-2.12,0l-2.28,2.28a18.83,18.83,0,0,0-4-1.65V10.06a1.5,1.5,0,0,0-1.5-1.5H28.07a1.5,1.5,0,0,0-1.5,1.5v3.22a18.83,18.83,0,0,0-4,1.65l-2.28-2.28a1.49,1.49,0,0,0-2.12,0l-5.56,5.56a1.49,1.49,0,0,0,0,2.12l2.28,2.28a18.83,18.83,0,0,0-1.65,4H10.06a1.5,1.5,0,0,0-1.5,1.5v7.86a1.5,1.5,0,0,0,1.5,1.5h3.22a18.83,18.83,0,0,0,1.65,4l-2.28,2.28a1.49,1.49,0,0,0,0,2.12l5.56,5.56a1.49,1.49,0,0,0,2.12,0l2.28-2.28a18.83,18.83,0,0,0,4,1.65v3.22a1.5,1.5,0,0,0,1.5,1.5h7.86a1.5,1.5,0,0,0,1.5-1.5V50.72a18.83,18.83,0,0,0,4-1.65l2.28,2.28a1.49,1.49,0,0,0,2.12,0l5.56-5.56a1.49,1.49,0,0,0,0-2.12l-2.28-2.28a18.83,18.83,0,0,0,1.65-4h3.22a1.5,1.5,0,0,0,1.5-1.5V28.07A1.5,1.5,0,0,0,53.94,26.57ZM39.46,32A7.46,7.46,0,0,1,32,39.46c-9.88-.35-9.88-14.58,0-14.92A7.46,7.46,0,0,1,39.46,32Z"/></g></svg>